STARTFONT 2.1
FONT -FontForge-Monoton-Book-R-Normal--9-90-72-72-P-60-ISO10646-1
SIZE 9 72 72
FONTBOUNDINGBOX 16 14 -1 -3
COMMENT "Generated by fontforge, http://fontforge.sourceforge.net"
COMMENT "Copyright (c) 2011 by vernon adams. All rights reserved."
STARTPROPERTIES 40
FOUNDRY "FontForge"
FAMILY_NAME "Monoton"
WEIGHT_NAME "Book"
SLANT "R"
SETWIDTH_NAME "Normal"
ADD_STYLE_NAME ""
PIXEL_SIZE 9
POINT_SIZE 90
RESOLUTION_X 72
RESOLUTION_Y 72
SPACING "P"
AVERAGE_WIDTH 60
CHARSET_REGISTRY "ISO10646"
CHARSET_ENCODING "1"
FONTNAME_REGISTRY ""
CHARSET_COLLECTIONS "ISO8859-2 ISO8859-9 ISO8859-4 ISO10646-1"
FONT_NAME "Monoton-Regular"
FACE_NAME "Monoton"
COPYRIGHT "Copyright (c) 2011 by vernon adams. All rights reserved."
FONT_VERSION "1.000"
FONT_ASCENT 7
FONT_DESCENT 2
UNDERLINE_POSITION 0
UNDERLINE_THICKNESS 1
X_HEIGHT 5
CAP_HEIGHT 6
DEFAULT_CHAR 1
RAW_ASCENT 799
RAW_DESCENT 200
NORM_SPACE 1
RELATIVE_WEIGHT 40
RELATIVE_SETWIDTH 50
SUPERSCRIPT_X 0
SUPERSCRIPT_Y 3
SUPERSCRIPT_SIZE 5
SUBSCRIPT_X 0
SUBSCRIPT_Y 0
SUBSCRIPT_SIZE 5
AVG_LOWERCASE_WIDTH 65
AVG_UPPERCASE_WIDTH 70
ENDPROPERTIES
CHARS 372
STARTCHAR glyph1.dup1
ENCODING 0
SWIDTH 108 0
DWIDTH 1 0
BBX 1 1 0 0
BITMAP
00
ENDCHAR
STARTCHAR uni0002
ENCODING 2
SWIDTH 108 0
DWIDTH 1 0
BBX 1 1 0 0
BITMAP
00
ENDCHAR
STARTCHAR uni0009
ENCODING 9
SWIDTH 108 0
DWIDTH 1 0
BBX 1 1 0 0
BITMAP
00
ENDCHAR
STARTCHAR uni000A
ENCODING 10
SWIDTH 108 0
DWIDTH 1 0
BBX 1 1 0 0
BITMAP
00
ENDCHAR
STARTCHAR uni000D
ENCODING 13
SWIDTH 108 0
DWIDTH 1 0
BBX 1 1 0 0
BITMAP
00
ENDCHAR
STARTCHAR space
ENCODING 32
SWIDTH 108 0
DWIDTH 1 0
BBX 1 1 0 0
BITMAP
00
ENDCHAR
STARTCHAR exclam
ENCODING 33
SWIDTH 336 0
DWIDTH 3 0
BBX 3 7 0 0
BITMAP
A0
A0
A0
A0
A0
00
E0
ENDCHAR
STARTCHAR quotedbl
ENCODING 34
SWIDTH 538 0
DWIDTH 5 0
BBX 4 3 0 4
BITMAP
D0
D0
D0
ENDCHAR
STARTCHAR numbersign
ENCODING 35
SWIDTH 1014 0
DWIDTH 9 0
BBX 9 9 0 -1
BITMAP
1B00
3B00
5E80
3300
3600
3600
FD00
6600
6C00
ENDCHAR
STARTCHAR dollar
ENCODING 36
SWIDTH 686 0
DWIDTH 6 0
BBX 6 10 0 -1
BITMAP
30
30
CC
B0
D8
EC
1C
7C
F8
30
ENDCHAR
STARTCHAR percent
ENCODING 37
SWIDTH 1504 0
DWIDTH 14 0
BBX 13 9 0 -1
BITMAP
3080
D900
AB00
BF78
6BB8
32D8
06F8
0678
0600
ENDCHAR
STARTCHAR ampersand
ENCODING 38
SWIDTH 1029 0
DWIDTH 9 0
BBX 9 7 0 0
BITMAP
7B00
BB00
A300
7E80
A300
7B80
7B80
ENDCHAR
STARTCHAR quotesingle
ENCODING 39
SWIDTH 257 0
DWIDTH 2 0
BBX 2 3 0 4
BITMAP
C0
C0
C0
ENDCHAR
STARTCHAR parenleft
ENCODING 40
SWIDTH 410 0
DWIDTH 4 0
BBX 3 9 0 -1
BITMAP
20
40
E0
A0
A0
A0
A0
40
20
ENDCHAR
STARTCHAR parenright
ENCODING 41
SWIDTH 408 0
DWIDTH 4 0
BBX 3 9 0 -1
BITMAP
80
60
A0
60
60
60
A0
60
80
ENDCHAR
STARTCHAR asterisk
ENCODING 42
SWIDTH 664 0
DWIDTH 6 0
BBX 6 5 0 1
BITMAP
78
FC
78
FC
30
ENDCHAR
STARTCHAR plus
ENCODING 43
SWIDTH 601 0
DWIDTH 5 0
BBX 5 4 0 2
BITMAP
30
30
E8
30
ENDCHAR
STARTCHAR comma
ENCODING 44
SWIDTH 252 0
DWIDTH 2 0
BBX 2 3 0 -1
BITMAP
C0
C0
C0
ENDCHAR
STARTCHAR hyphen
ENCODING 45
SWIDTH 473 0
DWIDTH 4 0
BBX 4 1 0 3
BITMAP
F0
ENDCHAR
STARTCHAR period
ENCODING 46
SWIDTH 255 0
DWIDTH 2 0
BBX 2 2 0 0
BITMAP
C0
C0
ENDCHAR
STARTCHAR slash
ENCODING 47
SWIDTH 447 0
DWIDTH 4 0
BBX 4 8 0 -1
BITMAP
30
20
60
60
60
40
C0
C0
ENDCHAR
STARTCHAR zero
ENCODING 48
SWIDTH 843 0
DWIDTH 8 0
BBX 7 8 0 0
BITMAP
18
64
7E
A6
A6
A6
FA
7C
ENDCHAR
STARTCHAR one
ENCODING 49
SWIDTH 426 0
DWIDTH 4 0
BBX 3 7 0 0
BITMAP
E0
60
60
60
60
60
60
ENDCHAR
STARTCHAR two
ENCODING 50
SWIDTH 583 0
DWIDTH 5 0
BBX 5 8 0 0
BITMAP
60
98
78
38
30
70
F8
F8
ENDCHAR
STARTCHAR three
ENCODING 51
SWIDTH 612 0
DWIDTH 6 0
BBX 5 8 0 0
BITMAP
60
98
68
78
08
78
D8
F8
ENDCHAR
STARTCHAR four
ENCODING 52
SWIDTH 622 0
DWIDTH 6 0
BBX 5 7 0 0
BITMAP
38
70
70
68
90
F8
08
ENDCHAR
STARTCHAR five
ENCODING 53
SWIDTH 691 0
DWIDTH 6 0
BBX 6 7 0 0
BITMAP
F8
C0
B8
BC
0C
7C
F8
ENDCHAR
STARTCHAR six
ENCODING 54
SWIDTH 781 0
DWIDTH 7 0
BBX 7 8 0 0
BITMAP
18
64
B8
B8
BC
A6
7A
7C
ENDCHAR
STARTCHAR seven
ENCODING 55
SWIDTH 631 0
DWIDTH 6 0
BBX 5 7 0 0
BITMAP
F8
18
18
28
30
30
70
ENDCHAR
STARTCHAR eight
ENCODING 56
SWIDTH 808 0
DWIDTH 7 0
BBX 7 8 0 0
BITMAP
38
C6
BE
DA
A6
DE
B6
7E
ENDCHAR
STARTCHAR nine
ENCODING 57
SWIDTH 782 0
DWIDTH 7 0
BBX 7 8 0 0
BITMAP
30
EC
B6
BA
EA
1A
6C
7C
ENDCHAR
STARTCHAR colon
ENCODING 58
SWIDTH 262 0
DWIDTH 2 0
BBX 2 4 0 1
BITMAP
C0
00
C0
C0
ENDCHAR
STARTCHAR semicolon
ENCODING 59
SWIDTH 261 0
DWIDTH 2 0
BBX 2 5 0 0
BITMAP
C0
00
C0
40
C0
ENDCHAR
STARTCHAR less
ENCODING 60
SWIDTH 670 0
DWIDTH 6 0
BBX 6 7 0 0
BITMAP
0C
3C
DC
B0
EC
18
04
ENDCHAR
STARTCHAR equal
ENCODING 61
SWIDTH 473 0
DWIDTH 4 0
BBX 4 4 0 1
BITMAP
F0
00
F0
F0
ENDCHAR
STARTCHAR greater
ENCODING 62
SWIDTH 670 0
DWIDTH 6 0
BBX 6 7 0 0
BITMAP
C0
F0
EC
38
DC
60
80
ENDCHAR
STARTCHAR question
ENCODING 63
SWIDTH 693 0
DWIDTH 6 0
BBX 6 8 0 0
BITMAP
30
C8
3C
7C
6C
70
60
60
ENDCHAR
STARTCHAR at
ENCODING 64
SWIDTH 1076 0
DWIDTH 10 0
BBX 9 9 0 -1
BITMAP
1E00
7F00
AD80
FE80
D680
DD80
AB80
7C00
1C00
ENDCHAR
STARTCHAR A
ENCODING 65
SWIDTH 936 0
DWIDTH 8 0
BBX 8 7 0 0
BITMAP
1C
2C
36
3E
76
5D
E3
ENDCHAR
STARTCHAR B
ENCODING 66
SWIDTH 862 0
DWIDTH 8 0
BBX 7 7 0 0
BITMAP
FE
DE
A6
BE
A6
BE
BE
ENDCHAR
STARTCHAR C
ENCODING 67
SWIDTH 852 0
DWIDTH 8 0
BBX 7 8 0 0
BITMAP
18
66
7E
A0
C0
A4
7E
3E
ENDCHAR
STARTCHAR D
ENCODING 68
SWIDTH 886 0
DWIDTH 8 0
BBX 8 7 0 0
BITMAP
FE
DF
A5
A5
A5
BA
FC
ENDCHAR
STARTCHAR E
ENCODING 69
SWIDTH 706 0
DWIDTH 6 0
BBX 6 7 0 0
BITMAP
BC
A0
A0
B0
A0
BC
BC
ENDCHAR
STARTCHAR F
ENCODING 70
SWIDTH 683 0
DWIDTH 6 0
BBX 6 7 0 0
BITMAP
BC
A0
A0
BC
BC
A0
A0
ENDCHAR
STARTCHAR G
ENCODING 71
SWIDTH 908 0
DWIDTH 8 0
BBX 8 8 0 0
BITMAP
18
66
7E
A0
C3
A3
7F
3F
ENDCHAR
STARTCHAR H
ENCODING 72
SWIDTH 901 0
DWIDTH 8 0
BBX 8 7 0 0
BITMAP
A5
A5
A5
BD
A5
A5
A5
ENDCHAR
STARTCHAR I
ENCODING 73
SWIDTH 338 0
DWIDTH 3 0
BBX 3 7 0 0
BITMAP
A0
A0
A0
A0
A0
A0
A0
ENDCHAR
STARTCHAR J
ENCODING 74
SWIDTH 434 0
DWIDTH 4 0
BBX 4 7 0 0
BITMAP
50
50
50
50
50
E0
E0
ENDCHAR
STARTCHAR K
ENCODING 75
SWIDTH 815 0
DWIDTH 7 0
BBX 7 7 0 0
BITMAP
AE
AC
B4
A8
BC
AC
AE
ENDCHAR
STARTCHAR L
ENCODING 76
SWIDTH 604 0
DWIDTH 5 0
BBX 5 7 0 0
BITMAP
A0
A0
A0
A0
A0
B8
B8
ENDCHAR
STARTCHAR M
ENCODING 77
SWIDTH 920 0
DWIDTH 8 0
BBX 8 7 0 0
BITMAP
E3
E7
B5
BF
AB
B3
A3
ENDCHAR
STARTCHAR N
ENCODING 78
SWIDTH 877 0
DWIDTH 8 0
BBX 7 7 0 0
BITMAP
E6
F6
FE
DE
B6
AE
A6
ENDCHAR
STARTCHAR O
ENCODING 79
SWIDTH 933 0
DWIDTH 8 0
BBX 8 8 0 0
BITMAP
18
66
7D
A3
C3
A3
7F
3E
ENDCHAR
STARTCHAR P
ENCODING 80
SWIDTH 850 0
DWIDTH 8 0
BBX 7 7 0 0
BITMAP
FE
DE
A6
BE
BE
A0
A0
ENDCHAR
STARTCHAR Q
ENCODING 81
SWIDTH 937 0
DWIDTH 8 0
BBX 8 9 0 -1
BITMAP
18
66
7D
A3
C3
AF
77
3E
03
ENDCHAR
STARTCHAR R
ENCODING 82
SWIDTH 843 0
DWIDTH 8 0
BBX 7 7 0 0
BITMAP
FE
DE
A6
BA
B4
AC
AE
ENDCHAR
STARTCHAR S
ENCODING 83
SWIDTH 682 0
DWIDTH 6 0
BBX 6 8 0 0
BITMAP
30
CC
B0
B8
EC
1C
6C
F8
ENDCHAR
STARTCHAR T
ENCODING 84
SWIDTH 591 0
DWIDTH 5 0
BBX 5 7 0 0
BITMAP
F8
50
50
50
50
50
50
ENDCHAR
STARTCHAR U
ENCODING 85
SWIDTH 905 0
DWIDTH 8 0
BBX 8 7 0 0
BITMAP
A5
A5
A5
A5
A5
7E
7E
ENDCHAR
STARTCHAR V
ENCODING 86
SWIDTH 940 0
DWIDTH 8 0
BBX 8 7 0 0
BITMAP
A3
65
56
2A
34
2C
1C
ENDCHAR
STARTCHAR W
ENCODING 87
SWIDTH 1161 0
DWIDTH 10 0
BBX 10 7 0 0
BITMAP
EEC0
6D40
7540
6A80
5580
2A80
3B00
ENDCHAR
STARTCHAR X
ENCODING 88
SWIDTH 876 0
DWIDTH 8 0
BBX 8 7 0 0
BITMAP
FF
5C
34
1C
3E
7A
E7
ENDCHAR
STARTCHAR Y
ENCODING 89
SWIDTH 789 0
DWIDTH 7 0
BBX 7 7 0 0
BITMAP
EE
6C
54
38
28
28
28
ENDCHAR
STARTCHAR Z
ENCODING 90
SWIDTH 854 0
DWIDTH 8 0
BBX 7 7 0 0
BITMAP
FE
EA
1E
74
F8
BE
FE
ENDCHAR
STARTCHAR bracketleft
ENCODING 91
SWIDTH 320 0
DWIDTH 3 0
BBX 3 9 0 -1
BITMAP
E0
A0
C0
C0
C0
C0
C0
A0
E0
ENDCHAR
STARTCHAR backslash
ENCODING 92
SWIDTH 448 0
DWIDTH 4 0
BBX 4 8 0 -1
BITMAP
C0
40
60
60
60
20
30
30
ENDCHAR
STARTCHAR bracketright
ENCODING 93
SWIDTH 319 0
DWIDTH 3 0
BBX 2 9 0 -1
BITMAP
C0
C0
40
40
40
40
40
C0
C0
ENDCHAR
STARTCHAR asciicircum
ENCODING 94
SWIDTH 475 0
DWIDTH 4 0
BBX 4 3 0 3
BITMAP
60
60
D0
ENDCHAR
STARTCHAR underscore
ENCODING 95
SWIDTH 511 0
DWIDTH 5 0
BBX 4 2 0 -2
BITMAP
F0
F0
ENDCHAR
STARTCHAR grave
ENCODING 96
SWIDTH 472 0
DWIDTH 4 0
BBX 4 3 0 6
BITMAP
40
E0
10
ENDCHAR
STARTCHAR a
ENCODING 97
SWIDTH 832 0
DWIDTH 7 0
BBX 7 7 0 0
BITMAP
10
6C
5E
E6
A6
7E
7E
ENDCHAR
STARTCHAR b
ENCODING 98
SWIDTH 720 0
DWIDTH 6 0
BBX 6 6 0 0
BITMAP
FC
C4
FC
BC
BC
FC
ENDCHAR
STARTCHAR c
ENCODING 99
SWIDTH 736 0
DWIDTH 7 0
BBX 6 7 0 0
BITMAP
18
64
58
E0
A0
7C
7C
ENDCHAR
STARTCHAR d
ENCODING 100
SWIDTH 833 0
DWIDTH 8 0
BBX 7 6 0 0
BITMAP
FC
DE
A6
A6
BE
FC
ENDCHAR
STARTCHAR e
ENCODING 101
SWIDTH 666 0
DWIDTH 6 0
BBX 6 6 0 0
BITMAP
BC
A0
B8
B8
BC
BC
ENDCHAR
STARTCHAR f
ENCODING 102
SWIDTH 625 0
DWIDTH 6 0
BBX 5 6 0 0
BITMAP
B8
A0
B8
B8
A0
A0
ENDCHAR
STARTCHAR g
ENCODING 103
SWIDTH 827 0
DWIDTH 7 0
BBX 7 7 0 0
BITMAP
18
64
58
E0
A6
7E
7E
ENDCHAR
STARTCHAR h
ENCODING 104
SWIDTH 830 0
DWIDTH 7 0
BBX 7 6 0 0
BITMAP
A6
A6
BE
BE
A6
A6
ENDCHAR
STARTCHAR i
ENCODING 105
SWIDTH 337 0
DWIDTH 3 0
BBX 3 6 0 0
BITMAP
A0
A0
A0
A0
A0
A0
ENDCHAR
STARTCHAR j
ENCODING 106
SWIDTH 393 0
DWIDTH 4 0
BBX 3 7 0 -1
BITMAP
60
60
60
60
60
A0
C0
ENDCHAR
STARTCHAR k
ENCODING 107
SWIDTH 801 0
DWIDTH 7 0
BBX 7 6 0 0
BITMAP
AE
BC
A8
B4
AC
AE
ENDCHAR
STARTCHAR l
ENCODING 108
SWIDTH 583 0
DWIDTH 5 0
BBX 5 6 0 0
BITMAP
A0
A0
A0
A0
B8
B8
ENDCHAR
STARTCHAR m
ENCODING 109
SWIDTH 1167 0
DWIDTH 11 0
BBX 10 7 0 0
BITMAP
3300
4CC0
B7C0
ACC0
ACC0
ACC0
ACC0
ENDCHAR
STARTCHAR n
ENCODING 110
SWIDTH 787 0
DWIDTH 7 0
BBX 7 6 0 0
BITMAP
E6
F6
EA
DE
D6
DE
ENDCHAR
STARTCHAR o
ENCODING 111
SWIDTH 833 0
DWIDTH 8 0
BBX 7 7 0 0
BITMAP
18
64
5A
E6
AE
7A
7C
ENDCHAR
STARTCHAR p
ENCODING 112
SWIDTH 781 0
DWIDTH 7 0
BBX 7 6 0 0
BITMAP
FC
C6
BA
A4
B8
A0
ENDCHAR
STARTCHAR q
ENCODING 113
SWIDTH 788 0
DWIDTH 7 0
BBX 7 7 0 -1
BITMAP
7E
D6
EA
FA
7A
0A
0A
ENDCHAR
STARTCHAR r
ENCODING 114
SWIDTH 831 0
DWIDTH 7 0
BBX 7 6 0 0
BITMAP
FE
C6
BA
A6
BC
AE
ENDCHAR
STARTCHAR s
ENCODING 115
SWIDTH 683 0
DWIDTH 6 0
BBX 6 6 0 0
BITMAP
FC
C0
F8
34
4C
F8
ENDCHAR
STARTCHAR t
ENCODING 116
SWIDTH 588 0
DWIDTH 5 0
BBX 5 6 0 0
BITMAP
F8
50
50
50
50
50
ENDCHAR
STARTCHAR u
ENCODING 117
SWIDTH 795 0
DWIDTH 7 0
BBX 7 6 0 0
BITMAP
A6
A6
A6
AA
7C
7C
ENDCHAR
STARTCHAR v
ENCODING 118
SWIDTH 855 0
DWIDTH 8 0
BBX 8 6 0 0
BITMAP
A7
6A
54
2C
34
38
ENDCHAR
STARTCHAR w
ENCODING 119
SWIDTH 1129 0
DWIDTH 10 0
BBX 10 6 0 0
BITMAP
ACC0
ACC0
ACC0
ACC0
7F40
7F80
ENDCHAR
STARTCHAR x
ENCODING 120
SWIDTH 790 0
DWIDTH 7 0
BBX 7 6 0 0
BITMAP
EE
54
38
7C
54
FE
ENDCHAR
STARTCHAR y
ENCODING 121
SWIDTH 733 0
DWIDTH 7 0
BBX 6 6 0 0
BITMAP
EC
74
38
28
30
30
ENDCHAR
STARTCHAR z
ENCODING 122
SWIDTH 714 0
DWIDTH 6 0
BBX 6 6 0 0
BITMAP
FC
18
28
70
BC
FC
ENDCHAR
STARTCHAR braceleft
ENCODING 123
SWIDTH 396 0
DWIDTH 4 0
BBX 3 10 0 -2
BITMAP
20
60
40
40
40
C0
40
40
60
60
ENDCHAR
STARTCHAR bar
ENCODING 124
SWIDTH 266 0
DWIDTH 2 0
BBX 2 8 0 -1
BITMAP
C0
C0
C0
C0
C0
C0
C0
C0
ENDCHAR
STARTCHAR braceright
ENCODING 125
SWIDTH 396 0
DWIDTH 4 0
BBX 3 10 0 -2
BITMAP
80
E0
60
60
60
60
60
60
A0
C0
ENDCHAR
STARTCHAR asciitilde
ENCODING 126
SWIDTH 665 0
DWIDTH 6 0
BBX 6 2 0 5
BITMAP
74
BC
ENDCHAR
STARTCHAR uni00A0
ENCODING 160
SWIDTH 108 0
DWIDTH 1 0
BBX 1 1 0 0
BITMAP
00
ENDCHAR
STARTCHAR exclamdown
ENCODING 161
SWIDTH 336 0
DWIDTH 3 0
BBX 3 7 0 0
BITMAP
A0
A0
A0
A0
A0
00
E0
ENDCHAR
STARTCHAR cent
ENCODING 162
SWIDTH 708 0
DWIDTH 6 0
BBX 6 9 0 -1
BITMAP
30
28
D4
A8
E0
58
6C
10
30
ENDCHAR
STARTCHAR sterling
ENCODING 163
SWIDTH 689 0
DWIDTH 6 0
BBX 6 8 0 0
BITMAP
30
CC
B8
A0
B8
A0
B8
B8
ENDCHAR
STARTCHAR currency
ENCODING 164
SWIDTH 715 0
DWIDTH 6 0
BBX 6 7 0 0
BITMAP
48
FC
48
44
48
FC
CC
ENDCHAR
STARTCHAR yen
ENCODING 165
SWIDTH 796 0
DWIDTH 7 0
BBX 7 7 0 0
BITMAP
EE
6C
54
28
38
6C
28
ENDCHAR
STARTCHAR brokenbar
ENCODING 166
SWIDTH 263 0
DWIDTH 2 0
BBX 2 8 0 -1
BITMAP
C0
C0
C0
00
C0
C0
C0
C0
ENDCHAR
STARTCHAR section
ENCODING 167
SWIDTH 108 0
DWIDTH 1 0
BBX 1 1 0 0
BITMAP
00
ENDCHAR
STARTCHAR dieresis
ENCODING 168
SWIDTH 556 0
DWIDTH 5 0
BBX 5 1 0 7
BITMAP
D8
ENDCHAR
STARTCHAR copyright
ENCODING 169
SWIDTH 869 0
DWIDTH 8 0
BBX 8 8 0 0
BITMAP
38
5E
A6
C1
C1
A6
5A
3C
ENDCHAR
STARTCHAR ordfeminine
ENCODING 170
SWIDTH 833 0
DWIDTH 8 0
BBX 7 7 0 0
BITMAP
10
6C
5E
A6
A6
7A
7E
ENDCHAR
STARTCHAR guillemotleft
ENCODING 171
SWIDTH 911 0
DWIDTH 8 0
BBX 8 5 0 1
BITMAP
11
77
AA
FF
11
ENDCHAR
STARTCHAR logicalnot
ENCODING 172
SWIDTH 718 0
DWIDTH 6 0
BBX 6 3 0 2
BITMAP
FC
FC
0C
ENDCHAR
STARTCHAR registered
ENCODING 174
SWIDTH 869 0
DWIDTH 8 0
BBX 8 8 0 0
BITMAP
38
46
BA
A5
B9
AA
42
3C
ENDCHAR
STARTCHAR degree
ENCODING 176
SWIDTH 330 0
DWIDTH 3 0
BBX 3 2 0 7
BITMAP
E0
E0
ENDCHAR
STARTCHAR plusminus
ENCODING 177
SWIDTH 598 0
DWIDTH 5 0
BBX 5 6 0 0
BITMAP
30
30
E8
30
00
78
ENDCHAR
STARTCHAR uni00B2
ENCODING 178
SWIDTH 435 0
DWIDTH 4 0
BBX 4 5 0 2
BITMAP
F0
30
20
40
E0
ENDCHAR
STARTCHAR uni00B3
ENCODING 179
SWIDTH 515 0
DWIDTH 5 0
BBX 4 6 0 1
BITMAP
F0
B0
50
70
70
F0
ENDCHAR
STARTCHAR acute
ENCODING 180
SWIDTH 472 0
DWIDTH 4 0
BBX 4 3 0 6
BITMAP
10
E0
40
ENDCHAR
STARTCHAR uni00B5
ENCODING 181
SWIDTH 802 0
DWIDTH 7 0
BBX 7 7 0 -1
BITMAP
A6
A6
A6
AE
B6
BC
A0
ENDCHAR
STARTCHAR paragraph
ENCODING 182
SWIDTH 676 0
DWIDTH 6 0
BBX 6 7 0 -1
BITMAP
7C
CC
B4
D4
34
14
14
ENDCHAR
STARTCHAR periodcentered
ENCODING 183
SWIDTH 260 0
DWIDTH 2 0
BBX 2 2 0 3
BITMAP
C0
C0
ENDCHAR
STARTCHAR cedilla
ENCODING 184
SWIDTH 321 0
DWIDTH 3 0
BBX 2 3 0 -3
BITMAP
40
C0
C0
ENDCHAR
STARTCHAR uni00B9
ENCODING 185
SWIDTH 359 0
DWIDTH 3 0
BBX 3 5 0 2
BITMAP
E0
60
60
60
60
ENDCHAR
STARTCHAR ordmasculine
ENCODING 186
SWIDTH 835 0
DWIDTH 8 0
BBX 7 7 0 0
BITMAP
18
64
5E
A6
A6
7A
7C
ENDCHAR
STARTCHAR guillemotright
ENCODING 187
SWIDTH 912 0
DWIDTH 8 0
BBX 8 5 0 1
BITMAP
88
EE
55
FF
CC
ENDCHAR
STARTCHAR onequarter
ENCODING 188
SWIDTH 1236 0
DWIDTH 11 0
BBX 11 8 0 -1
BITMAP
E600
64C0
6C80
6D40
6DE0
09A0
1840
1800
ENDCHAR
STARTCHAR onehalf
ENCODING 189
SWIDTH 1154 0
DWIDTH 10 0
BBX 10 8 0 -1
BITMAP
E600
65C0
6C40
6C40
6C80
0900
19C0
1800
ENDCHAR
STARTCHAR threequarters
ENCODING 190
SWIDTH 1345 0
DWIDTH 12 0
BBX 12 8 0 -1
BITMAP
F300
B360
5240
76A0
76F0
F6D0
0420
0C00
ENDCHAR
STARTCHAR questiondown
ENCODING 191
SWIDTH 693 0
DWIDTH 6 0
BBX 6 8 0 0
BITMAP
30
C8
3C
7C
6C
70
60
60
ENDCHAR
STARTCHAR Agrave
ENCODING 192
SWIDTH 936 0
DWIDTH 8 0
BBX 8 11 0 0
BITMAP
20
70
08
08
14
2C
36
3E
76
5D
E3
ENDCHAR
STARTCHAR Aacute
ENCODING 193
SWIDTH 936 0
DWIDTH 8 0
BBX 8 11 0 0
BITMAP
02
1E
08
08
14
2C
36
3E
76
5D
E3
ENDCHAR
STARTCHAR Acircumflex
ENCODING 194
SWIDTH 936 0
DWIDTH 8 0
BBX 8 10 0 0
BITMAP
18
18
0C
14
2C
36
3E
76
5D
E3
ENDCHAR
STARTCHAR Atilde
ENCODING 195
SWIDTH 936 0
DWIDTH 8 0
BBX 8 10 0 0
BITMAP
3A
36
08
14
2C
36
3E
76
5D
E3
ENDCHAR
STARTCHAR Adieresis
ENCODING 196
SWIDTH 936 0
DWIDTH 8 0
BBX 8 9 0 0
BITMAP
34
08
14
2C
36
3E
76
5D
E3
ENDCHAR
STARTCHAR Aring
ENCODING 197
SWIDTH 936 0
DWIDTH 8 0
BBX 8 10 0 0
BITMAP
18
18
08
14
2C
36
3E
76
5D
E3
ENDCHAR
STARTCHAR AE
ENCODING 198
SWIDTH 1198 0
DWIDTH 11 0
BBX 10 7 0 0
BITMAP
1FC0
2C00
3600
3DC0
7600
5DC0
A3C0
ENDCHAR
STARTCHAR Ccedilla
ENCODING 199
SWIDTH 852 0
DWIDTH 8 0
BBX 7 11 0 -3
BITMAP
18
66
7E
A0
C0
A4
7E
3E
18
28
18
ENDCHAR
STARTCHAR Egrave
ENCODING 200
SWIDTH 706 0
DWIDTH 6 0
BBX 6 11 0 0
BITMAP
40
E0
10
00
BC
A0
A0
B0
A0
BC
BC
ENDCHAR
STARTCHAR Eacute
ENCODING 201
SWIDTH 706 0
DWIDTH 6 0
BBX 6 11 0 0
BITMAP
04
3C
10
00
BC
A0
A0
B0
A0
BC
BC
ENDCHAR
STARTCHAR Ecircumflex
ENCODING 202
SWIDTH 706 0
DWIDTH 6 0
BBX 6 10 0 0
BITMAP
30
30
08
BC
A0
A0
B0
A0
BC
BC
ENDCHAR
STARTCHAR Edieresis
ENCODING 203
SWIDTH 706 0
DWIDTH 6 0
BBX 6 9 0 0
BITMAP
68
00
BC
A0
A0
B0
A0
BC
BC
ENDCHAR
STARTCHAR Igrave
ENCODING 204
SWIDTH 338 0
DWIDTH 3 0
BBX 4 11 -1 0
BITMAP
80
E0
20
00
50
50
50
50
50
50
50
ENDCHAR
STARTCHAR Iacute
ENCODING 205
SWIDTH 338 0
DWIDTH 3 0
BBX 4 11 0 0
BITMAP
10
70
40
00
A0
A0
A0
A0
A0
A0
A0
ENDCHAR
STARTCHAR Icircumflex
ENCODING 206
SWIDTH 338 0
DWIDTH 3 0
BBX 3 10 0 0
BITMAP
40
A0
00
A0
A0
A0
A0
A0
A0
A0
ENDCHAR
STARTCHAR Idieresis
ENCODING 207
SWIDTH 338 0
DWIDTH 3 0
BBX 5 9 -1 0
BITMAP
D8
00
50
50
50
50
50
50
50
ENDCHAR
STARTCHAR Eth
ENCODING 208
SWIDTH 905 0
DWIDTH 8 0
BBX 8 7 0 0
BITMAP
7E
5E
25
F3
65
7A
FC
ENDCHAR
STARTCHAR Ntilde
ENCODING 209
SWIDTH 877 0
DWIDTH 8 0
BBX 7 10 0 0
BITMAP
3A
5E
00
E6
F6
FE
DE
B6
AE
A6
ENDCHAR
STARTCHAR Ograve
ENCODING 210
SWIDTH 933 0
DWIDTH 8 0
BBX 8 11 0 0
BITMAP
20
70
08
18
66
7D
A3
C3
A3
7F
3E
ENDCHAR
STARTCHAR Oacute
ENCODING 211
SWIDTH 933 0
DWIDTH 8 0
BBX 8 11 0 0
BITMAP
02
1E
08
18
66
7D
A3
C3
A3
7F
3E
ENDCHAR
STARTCHAR Ocircumflex
ENCODING 212
SWIDTH 933 0
DWIDTH 8 0
BBX 8 10 0 0
BITMAP
18
18
1C
66
7D
A3
C3
A3
7F
3E
ENDCHAR
STARTCHAR Otilde
ENCODING 213
SWIDTH 933 0
DWIDTH 8 0
BBX 8 10 0 0
BITMAP
3A
26
18
66
7D
A3
C3
A3
7F
3E
ENDCHAR
STARTCHAR Odieresis
ENCODING 214
SWIDTH 933 0
DWIDTH 8 0
BBX 8 9 0 0
BITMAP
34
18
66
7D
A3
C3
A3
7F
3E
ENDCHAR
STARTCHAR multiply
ENCODING 215
SWIDTH 790 0
DWIDTH 7 0
BBX 7 6 0 0
BITMAP
EE
54
38
7C
54
FE
ENDCHAR
STARTCHAR Oslash
ENCODING 216
SWIDTH 938 0
DWIDTH 8 0
BBX 8 10 0 -1
BITMAP
04
1A
66
7D
A3
C3
A3
7F
3E
60
ENDCHAR
STARTCHAR Ugrave
ENCODING 217
SWIDTH 905 0
DWIDTH 8 0
BBX 8 11 0 0
BITMAP
40
38
10
00
A5
A5
A5
A5
A5
7E
7E
ENDCHAR
STARTCHAR Uacute
ENCODING 218
SWIDTH 905 0
DWIDTH 8 0
BBX 8 11 0 0
BITMAP
02
1C
08
00
A5
A5
A5
A5
A5
7E
7E
ENDCHAR
STARTCHAR Ucircumflex
ENCODING 219
SWIDTH 905 0
DWIDTH 8 0
BBX 8 10 0 0
BITMAP
18
18
00
A5
A5
A5
A5
A5
7E
7E
ENDCHAR
STARTCHAR Udieresis
ENCODING 220
SWIDTH 905 0
DWIDTH 8 0
BBX 8 9 0 0
BITMAP
34
00
A5
A5
A5
A5
A5
7E
7E
ENDCHAR
STARTCHAR Yacute
ENCODING 221
SWIDTH 789 0
DWIDTH 7 0
BBX 7 11 0 0
BITMAP
04
1C
10
44
AA
6C
54
38
28
28
28
ENDCHAR
STARTCHAR Thorn
ENCODING 222
SWIDTH 798 0
DWIDTH 7 0
BBX 7 9 0 -1
BITMAP
A0
B8
B4
AA
A6
BA
AC
B0
A0
ENDCHAR
STARTCHAR germandbls
ENCODING 223
SWIDTH 826 0
DWIDTH 7 0
BBX 7 9 0 -1
BITMAP
38
46
BE
BE
BE
A6
BE
BC
A0
ENDCHAR
STARTCHAR agrave
ENCODING 224
SWIDTH 832 0
DWIDTH 7 0
BBX 7 10 0 0
BITMAP
40
70
10
10
6C
5E
E6
A6
7E
7E
ENDCHAR
STARTCHAR aacute
ENCODING 225
SWIDTH 832 0
DWIDTH 7 0
BBX 7 10 0 0
BITMAP
04
0E
10
10
6C
5E
E6
A6
7E
7E
ENDCHAR
STARTCHAR acircumflex
ENCODING 226
SWIDTH 832 0
DWIDTH 7 0
BBX 7 9 0 0
BITMAP
10
28
10
6C
5E
E6
A6
7E
7E
ENDCHAR
STARTCHAR atilde
ENCODING 227
SWIDTH 832 0
DWIDTH 7 0
BBX 7 9 0 0
BITMAP
3C
4C
10
6C
5E
E6
A6
7E
7E
ENDCHAR
STARTCHAR adieresis
ENCODING 228
SWIDTH 832 0
DWIDTH 7 0
BBX 7 8 0 0
BITMAP
6C
10
6C
5E
E6
A6
7E
7E
ENDCHAR
STARTCHAR aring
ENCODING 229
SWIDTH 832 0
DWIDTH 7 0
BBX 7 9 0 0
BITMAP
38
18
10
6C
5E
E6
A6
7E
7E
ENDCHAR
STARTCHAR ae
ENCODING 230
SWIDTH 1166 0
DWIDTH 11 0
BBX 10 7 0 0
BITMAP
1000
6DC0
5E00
E7C0
A5C0
7DC0
7FC0
ENDCHAR
STARTCHAR ccedilla
ENCODING 231
SWIDTH 736 0
DWIDTH 7 0
BBX 6 10 0 -3
BITMAP
18
64
58
E0
A0
7C
7C
10
30
30
ENDCHAR
STARTCHAR egrave
ENCODING 232
SWIDTH 666 0
DWIDTH 6 0
BBX 6 10 0 0
BITMAP
80
70
20
00
BC
A0
B8
B8
BC
BC
ENDCHAR
STARTCHAR eacute
ENCODING 233
SWIDTH 666 0
DWIDTH 6 0
BBX 6 10 0 0
BITMAP
04
38
10
00
BC
A0
B8
B8
BC
BC
ENDCHAR
STARTCHAR ecircumflex
ENCODING 234
SWIDTH 666 0
DWIDTH 6 0
BBX 6 9 0 0
BITMAP
30
30
00
BC
A0
B8
B8
BC
BC
ENDCHAR
STARTCHAR edieresis
ENCODING 235
SWIDTH 666 0
DWIDTH 6 0
BBX 6 8 0 0
BITMAP
48
00
BC
A0
B8
B8
BC
BC
ENDCHAR
STARTCHAR igrave
ENCODING 236
SWIDTH 337 0
DWIDTH 3 0
BBX 4 10 -1 0
BITMAP
80
E0
20
00
50
50
50
50
50
50
ENDCHAR
STARTCHAR iacute
ENCODING 237
SWIDTH 337 0
DWIDTH 3 0
BBX 4 10 0 0
BITMAP
10
70
40
00
A0
A0
A0
A0
A0
A0
ENDCHAR
STARTCHAR icircumflex
ENCODING 238
SWIDTH 337 0
DWIDTH 3 0
BBX 3 9 0 0
BITMAP
40
A0
00
A0
A0
A0
A0
A0
A0
ENDCHAR
STARTCHAR idieresis
ENCODING 239
SWIDTH 337 0
DWIDTH 3 0
BBX 5 8 -1 0
BITMAP
D8
00
50
50
50
50
50
50
ENDCHAR
STARTCHAR eth
ENCODING 240
SWIDTH 783 0
DWIDTH 7 0
BBX 7 8 0 0
BITMAP
30
CC
3A
3A
CA
BA
CC
7C
ENDCHAR
STARTCHAR ntilde
ENCODING 241
SWIDTH 787 0
DWIDTH 7 0
BBX 7 9 0 0
BITMAP
3C
7C
40
A6
F6
EA
DE
D6
DE
ENDCHAR
STARTCHAR ograve
ENCODING 242
SWIDTH 833 0
DWIDTH 8 0
BBX 7 10 0 0
BITMAP
40
70
10
18
64
5A
E6
AE
7A
7C
ENDCHAR
STARTCHAR oacute
ENCODING 243
SWIDTH 833 0
DWIDTH 8 0
BBX 7 10 0 0
BITMAP
04
0E
10
18
64
5A
E6
AE
7A
7C
ENDCHAR
STARTCHAR ocircumflex
ENCODING 244
SWIDTH 833 0
DWIDTH 8 0
BBX 7 9 0 0
BITMAP
10
18
38
64
5A
E6
AE
7A
7C
ENDCHAR
STARTCHAR otilde
ENCODING 245
SWIDTH 833 0
DWIDTH 8 0
BBX 7 9 0 0
BITMAP
3C
44
18
64
5A
E6
AE
7A
7C
ENDCHAR
STARTCHAR odieresis
ENCODING 246
SWIDTH 833 0
DWIDTH 8 0
BBX 7 8 0 0
BITMAP
2C
18
64
5A
E6
AE
7A
7C
ENDCHAR
STARTCHAR divide
ENCODING 247
SWIDTH 260 0
DWIDTH 2 0
BBX 3 6 0 0
BITMAP
C0
C0
00
E0
C0
C0
ENDCHAR
STARTCHAR oslash
ENCODING 248
SWIDTH 832 0
DWIDTH 8 0
BBX 7 8 0 -1
BITMAP
1E
64
5A
E6
A6
7A
5C
20
ENDCHAR
STARTCHAR ugrave
ENCODING 249
SWIDTH 795 0
DWIDTH 7 0
BBX 7 10 0 0
BITMAP
40
70
10
00
A6
A6
A6
AA
7C
7C
ENDCHAR
STARTCHAR uacute
ENCODING 250
SWIDTH 795 0
DWIDTH 7 0
BBX 7 10 0 0
BITMAP
04
0E
10
00
A6
A6
A6
AA
7C
7C
ENDCHAR
STARTCHAR ucircumflex
ENCODING 251
SWIDTH 795 0
DWIDTH 7 0
BBX 7 9 0 0
BITMAP
10
28
00
A6
A6
A6
AA
7C
7C
ENDCHAR
STARTCHAR udieresis
ENCODING 252
SWIDTH 795 0
DWIDTH 7 0
BBX 7 8 0 0
BITMAP
6C
00
A6
A6
A6
AA
7C
7C
ENDCHAR
STARTCHAR yacute
ENCODING 253
SWIDTH 733 0
DWIDTH 7 0
BBX 6 10 0 0
BITMAP
04
1C
10
00
EC
74
38
28
30
30
ENDCHAR
STARTCHAR thorn
ENCODING 254
SWIDTH 833 0
DWIDTH 8 0
BBX 7 8 0 -1
BITMAP
A0
A0
BE
A6
BA
A6
B8
A0
ENDCHAR
STARTCHAR ydieresis
ENCODING 255
SWIDTH 733 0
DWIDTH 7 0
BBX 6 8 0 0
BITMAP
68
00
EC
74
38
28
30
30
ENDCHAR
STARTCHAR Amacron
ENCODING 256
SWIDTH 936 0
DWIDTH 8 0
BBX 8 7 0 0
BITMAP
1C
2C
36
3E
76
5D
E3
ENDCHAR
STARTCHAR amacron
ENCODING 257
SWIDTH 832 0
DWIDTH 7 0
BBX 7 7 0 0
BITMAP
10
6C
5E
E6
A6
7E
7E
ENDCHAR
STARTCHAR Abreve
ENCODING 258
SWIDTH 936 0
DWIDTH 8 0
BBX 8 9 0 0
BITMAP
1C
08
14
2C
36
3E
76
5D
E3
ENDCHAR
STARTCHAR abreve
ENCODING 259
SWIDTH 832 0
DWIDTH 7 0
BBX 7 8 0 0
BITMAP
38
10
6C
5E
E6
A6
7E
7E
ENDCHAR
STARTCHAR Aogonek
ENCODING 260
SWIDTH 937 0
DWIDTH 8 0
BBX 8 10 0 -3
BITMAP
1C
2C
3A
36
56
7D
A3
30
10
10
ENDCHAR
STARTCHAR aogonek
ENCODING 261
SWIDTH 832 0
DWIDTH 7 0
BBX 7 10 0 -3
BITMAP
10
6C
5E
E6
A6
7E
5E
30
30
30
ENDCHAR
STARTCHAR Cacute
ENCODING 262
SWIDTH 852 0
DWIDTH 8 0
BBX 7 11 0 0
BITMAP
02
1E
08
18
66
7E
A0
C0
A4
7E
3E
ENDCHAR
STARTCHAR cacute
ENCODING 263
SWIDTH 736 0
DWIDTH 7 0
BBX 7 10 0 0
BITMAP
04
0E
10
18
64
58
E0
A0
7C
7C
ENDCHAR
STARTCHAR Cdotaccent
ENCODING 266
SWIDTH 852 0
DWIDTH 8 0
BBX 7 9 0 0
BITMAP
18
18
66
7E
A0
C0
A4
7E
3E
ENDCHAR
STARTCHAR cdotaccent
ENCODING 267
SWIDTH 736 0
DWIDTH 7 0
BBX 6 8 0 0
BITMAP
18
18
64
58
E0
A0
7C
7C
ENDCHAR
STARTCHAR Ccaron
ENCODING 268
SWIDTH 852 0
DWIDTH 8 0
BBX 7 10 0 0
BITMAP
1C
18
18
66
7E
A0
C0
A4
7E
3E
ENDCHAR
STARTCHAR ccaron
ENCODING 269
SWIDTH 736 0
DWIDTH 7 0
BBX 6 9 0 0
BITMAP
38
18
18
64
58
E0
A0
7C
7C
ENDCHAR
STARTCHAR Dcaron
ENCODING 270
SWIDTH 886 0
DWIDTH 8 0
BBX 8 10 0 0
BITMAP
18
18
00
FE
DF
A5
A5
A5
BA
FC
ENDCHAR
STARTCHAR dcaron
ENCODING 271
SWIDTH 1084 0
DWIDTH 10 0
BBX 9 7 0 0
BITMAP
0080
FC80
DE80
A600
A600
BE00
FC00
ENDCHAR
STARTCHAR Dcroat
ENCODING 272
SWIDTH 888 0
DWIDTH 8 0
BBX 8 7 0 0
BITMAP
FE
DF
A5
B5
A5
BA
FC
ENDCHAR
STARTCHAR dcroat
ENCODING 273
SWIDTH 833 0
DWIDTH 8 0
BBX 7 6 0 0
BITMAP
FC
CE
B6
A6
BE
FC
ENDCHAR
STARTCHAR Emacron
ENCODING 274
SWIDTH 706 0
DWIDTH 6 0
BBX 6 7 0 0
BITMAP
BC
A0
A0
B0
A0
BC
BC
ENDCHAR
STARTCHAR emacron
ENCODING 275
SWIDTH 666 0
DWIDTH 6 0
BBX 6 6 0 0
BITMAP
BC
A0
B8
B8
BC
BC
ENDCHAR
STARTCHAR Ebreve
ENCODING 276
SWIDTH 706 0
DWIDTH 6 0
BBX 6 9 0 0
BITMAP
38
00
BC
A0
A0
B0
A0
BC
BC
ENDCHAR
STARTCHAR ebreve
ENCODING 277
SWIDTH 666 0
DWIDTH 6 0
BBX 6 8 0 0
BITMAP
30
00
BC
A0
B8
B8
BC
BC
ENDCHAR
STARTCHAR Edotaccent
ENCODING 278
SWIDTH 706 0
DWIDTH 6 0
BBX 6 10 0 0
BITMAP
30
30
00
BC
A0
A0
B0
A0
BC
BC
ENDCHAR
STARTCHAR edotaccent
ENCODING 279
SWIDTH 666 0
DWIDTH 6 0
BBX 6 9 0 0
BITMAP
30
30
00
BC
A0
B8
B8
BC
BC
ENDCHAR
STARTCHAR Eogonek
ENCODING 280
SWIDTH 706 0
DWIDTH 6 0
BBX 6 10 0 -3
BITMAP
BC
A0
A0
B0
A0
BC
B0
0C
0C
0C
ENDCHAR
STARTCHAR eogonek
ENCODING 281
SWIDTH 666 0
DWIDTH 6 0
BBX 6 9 0 -3
BITMAP
BC
A0
B8
B8
BC
B0
0C
0C
0C
ENDCHAR
STARTCHAR Ecaron
ENCODING 282
SWIDTH 706 0
DWIDTH 6 0
BBX 6 10 0 0
BITMAP
38
30
00
BC
A0
A0
B0
A0
BC
BC
ENDCHAR
STARTCHAR ecaron
ENCODING 283
SWIDTH 666 0
DWIDTH 6 0
BBX 6 9 0 0
BITMAP
70
30
00
BC
A0
B8
B8
BC
BC
ENDCHAR
STARTCHAR Gbreve
ENCODING 286
SWIDTH 908 0
DWIDTH 8 0
BBX 8 9 0 0
BITMAP
1C
18
66
7E
A0
C3
A3
7F
3F
ENDCHAR
STARTCHAR gbreve
ENCODING 287
SWIDTH 827 0
DWIDTH 7 0
BBX 7 8 0 0
BITMAP
38
18
64
58
E0
A6
7E
7E
ENDCHAR
STARTCHAR Gdotaccent
ENCODING 288
SWIDTH 908 0
DWIDTH 8 0
BBX 8 9 0 0
BITMAP
18
18
66
7E
A0
C3
A3
7F
3F
ENDCHAR
STARTCHAR gdotaccent
ENCODING 289
SWIDTH 827 0
DWIDTH 7 0
BBX 7 8 0 0
BITMAP
18
18
64
58
E0
A6
7E
7E
ENDCHAR
STARTCHAR Gcommaaccent
ENCODING 290
SWIDTH 908 0
DWIDTH 8 0
BBX 8 11 0 -3
BITMAP
18
66
7E
A0
C3
A3
7F
3F
00
18
18
ENDCHAR
STARTCHAR gcommaaccent
ENCODING 291
SWIDTH 827 0
DWIDTH 7 0
BBX 7 7 0 0
BITMAP
18
64
58
E0
A6
7E
7E
ENDCHAR
STARTCHAR Hcircumflex
ENCODING 292
SWIDTH 901 0
DWIDTH 8 0
BBX 8 10 0 0
BITMAP
18
18
00
A5
A5
A5
BD
A5
A5
A5
ENDCHAR
STARTCHAR hcircumflex
ENCODING 293
SWIDTH 830 0
DWIDTH 7 0
BBX 7 9 0 0
BITMAP
10
18
20
A6
A6
BE
BE
A6
A6
ENDCHAR
STARTCHAR Hbar
ENCODING 294
SWIDTH 901 0
DWIDTH 8 0
BBX 8 7 0 0
BITMAP
A5
BD
A5
BD
A5
A5
A5
ENDCHAR
STARTCHAR hbar
ENCODING 295
SWIDTH 830 0
DWIDTH 7 0
BBX 8 6 0 0
BITMAP
BD
A6
BE
BE
A6
A6
ENDCHAR
STARTCHAR Itilde
ENCODING 296
SWIDTH 338 0
DWIDTH 3 0
BBX 5 10 -1 0
BITMAP
F8
F8
00
50
50
50
50
50
50
50
ENDCHAR
STARTCHAR itilde
ENCODING 297
SWIDTH 337 0
DWIDTH 3 0
BBX 5 9 -1 0
BITMAP
F8
F8
00
50
50
50
50
50
50
ENDCHAR
STARTCHAR Imacron
ENCODING 298
SWIDTH 338 0
DWIDTH 3 0
BBX 3 7 0 0
BITMAP
A0
A0
A0
A0
A0
A0
A0
ENDCHAR
STARTCHAR imacron
ENCODING 299
SWIDTH 337 0
DWIDTH 3 0
BBX 3 6 0 0
BITMAP
A0
A0
A0
A0
A0
A0
ENDCHAR
STARTCHAR Ibreve
ENCODING 300
SWIDTH 338 0
DWIDTH 3 0
BBX 3 9 0 0
BITMAP
E0
00
A0
A0
A0
A0
A0
A0
A0
ENDCHAR
STARTCHAR ibreve
ENCODING 301
SWIDTH 337 0
DWIDTH 3 0
BBX 3 8 0 0
BITMAP
E0
00
A0
A0
A0
A0
A0
A0
ENDCHAR
STARTCHAR Iogonek
ENCODING 302
SWIDTH 338 0
DWIDTH 3 0
BBX 3 10 0 -3
BITMAP
A0
A0
A0
A0
A0
A0
A0
60
60
60
ENDCHAR
STARTCHAR iogonek
ENCODING 303
SWIDTH 337 0
DWIDTH 3 0
BBX 3 9 0 -3
BITMAP
A0
A0
A0
A0
A0
A0
60
60
60
ENDCHAR
STARTCHAR Idotaccent
ENCODING 304
SWIDTH 338 0
DWIDTH 3 0
BBX 3 9 0 0
BITMAP
40
00
A0
A0
A0
A0
A0
A0
A0
ENDCHAR
STARTCHAR dotlessi
ENCODING 305
SWIDTH 337 0
DWIDTH 3 0
BBX 3 6 0 0
BITMAP
A0
A0
A0
A0
A0
A0
ENDCHAR
STARTCHAR IJ
ENCODING 306
SWIDTH 774 0
DWIDTH 7 0
BBX 7 7 0 0
BITMAP
AA
AA
AA
AA
AA
BC
BC
ENDCHAR
STARTCHAR ij
ENCODING 307
SWIDTH 729 0
DWIDTH 7 0
BBX 6 7 0 -1
BITMAP
AC
AC
AC
AC
BC
B4
18
ENDCHAR
STARTCHAR Jcircumflex
ENCODING 308
SWIDTH 434 0
DWIDTH 4 0
BBX 4 10 0 0
BITMAP
60
70
00
50
50
50
50
50
E0
E0
ENDCHAR
STARTCHAR jcircumflex
ENCODING 309
SWIDTH 393 0
DWIDTH 4 0
BBX 3 10 0 -1
BITMAP
60
60
00
60
60
60
60
60
A0
C0
ENDCHAR
STARTCHAR Kcommaaccent
ENCODING 310
SWIDTH 815 0
DWIDTH 7 0
BBX 7 10 0 -3
BITMAP
AE
AC
B4
A8
BC
AC
AE
00
18
18
ENDCHAR
STARTCHAR kcommaaccent
ENCODING 311
SWIDTH 801 0
DWIDTH 7 0
BBX 7 9 0 -3
BITMAP
AE
BC
A8
B4
AC
AE
00
18
10
ENDCHAR
STARTCHAR kgreenlandic
ENCODING 312
SWIDTH 801 0
DWIDTH 7 0
BBX 7 6 0 0
BITMAP
AE
BC
A8
B4
AC
AE
ENDCHAR
STARTCHAR Lacute
ENCODING 313
SWIDTH 604 0
DWIDTH 5 0
BBX 6 11 0 0
BITMAP
08
1C
20
00
A0
A0
A0
A0
A0
B8
B8
ENDCHAR
STARTCHAR lacute
ENCODING 314
SWIDTH 583 0
DWIDTH 5 0
BBX 5 10 0 0
BITMAP
10
70
40
00
A0
A0
A0
A0
B8
B8
ENDCHAR
STARTCHAR Lcommaaccent
ENCODING 315
SWIDTH 604 0
DWIDTH 5 0
BBX 5 10 0 -3
BITMAP
A0
A0
A0
A0
A0
B8
B8
00
30
30
ENDCHAR
STARTCHAR lcommaaccent
ENCODING 316
SWIDTH 583 0
DWIDTH 5 0
BBX 5 9 0 -3
BITMAP
A0
A0
A0
A0
B8
B8
00
20
20
ENDCHAR
STARTCHAR Lcaron
ENCODING 317
SWIDTH 856 0
DWIDTH 8 0
BBX 7 8 0 0
BITMAP
02
A2
A2
A0
A0
A0
B8
B8
ENDCHAR
STARTCHAR lcaron
ENCODING 318
SWIDTH 584 0
DWIDTH 5 0
BBX 5 7 0 0
BITMAP
18
B8
B8
A0
A0
B8
B8
ENDCHAR
STARTCHAR Ldot
ENCODING 319
SWIDTH 604 0
DWIDTH 5 0
BBX 5 7 0 0
BITMAP
A0
A0
B8
B8
A0
B8
B8
ENDCHAR
STARTCHAR ldot
ENCODING 320
SWIDTH 582 0
DWIDTH 5 0
BBX 5 6 0 0
BITMAP
A0
B8
B8
A0
B8
B8
ENDCHAR
STARTCHAR Lslash
ENCODING 321
SWIDTH 604 0
DWIDTH 5 0
BBX 6 7 -1 0
BITMAP
50
58
58
D0
50
5C
5C
ENDCHAR
STARTCHAR lslash
ENCODING 322
SWIDTH 581 0
DWIDTH 5 0
BBX 6 6 -1 0
BITMAP
50
58
D8
D0
5C
5C
ENDCHAR
STARTCHAR Nacute
ENCODING 323
SWIDTH 877 0
DWIDTH 8 0
BBX 7 11 0 0
BITMAP
02
0C
10
00
E6
F6
FE
DE
B6
AE
A6
ENDCHAR
STARTCHAR nacute
ENCODING 324
SWIDTH 787 0
DWIDTH 7 0
BBX 7 10 0 0
BITMAP
04
1C
10
40
A6
F6
EA
DE
D6
DE
ENDCHAR
STARTCHAR Ncommaaccent
ENCODING 325
SWIDTH 877 0
DWIDTH 8 0
BBX 7 10 0 -3
BITMAP
E6
F6
FE
DE
B6
AE
A6
00
18
18
ENDCHAR
STARTCHAR ncommaaccent
ENCODING 326
SWIDTH 787 0
DWIDTH 7 0
BBX 7 9 0 -3
BITMAP
E6
F6
EA
DE
D6
DE
00
10
10
ENDCHAR
STARTCHAR Ncaron
ENCODING 327
SWIDTH 877 0
DWIDTH 8 0
BBX 7 10 0 0
BITMAP
18
18
00
E6
F6
FE
DE
B6
AE
A6
ENDCHAR
STARTCHAR ncaron
ENCODING 328
SWIDTH 787 0
DWIDTH 7 0
BBX 7 9 0 0
BITMAP
28
10
40
A6
F6
EA
DE
D6
DE
ENDCHAR
STARTCHAR Eng
ENCODING 330
SWIDTH 874 0
DWIDTH 8 0
BBX 7 10 0 -3
BITMAP
F6
F6
AE
FE
BE
AE
A6
06
0E
0C
ENDCHAR
STARTCHAR eng
ENCODING 331
SWIDTH 691 0
DWIDTH 6 0
BBX 6 8 0 -2
BITMAP
FC
EC
FC
DC
DC
CC
0C
18
ENDCHAR
STARTCHAR Omacron
ENCODING 332
SWIDTH 933 0
DWIDTH 8 0
BBX 8 8 0 0
BITMAP
18
66
7D
A3
C3
A3
7F
3E
ENDCHAR
STARTCHAR omacron
ENCODING 333
SWIDTH 833 0
DWIDTH 8 0
BBX 7 7 0 0
BITMAP
18
64
5A
E6
AE
7A
7C
ENDCHAR
STARTCHAR Obreve
ENCODING 334
SWIDTH 933 0
DWIDTH 8 0
BBX 8 9 0 0
BITMAP
1C
18
66
7D
A3
C3
A3
7F
3E
ENDCHAR
STARTCHAR obreve
ENCODING 335
SWIDTH 833 0
DWIDTH 8 0
BBX 7 8 0 0
BITMAP
38
18
64
5A
E6
AE
7A
7C
ENDCHAR
STARTCHAR Ohungarumlaut
ENCODING 336
SWIDTH 933 0
DWIDTH 8 0
BBX 9 11 0 0
BITMAP
0880
3B00
2400
1800
6600
7D00
A300
C300
A300
7F00
3E00
ENDCHAR
STARTCHAR ohungarumlaut
ENCODING 337
SWIDTH 833 0
DWIDTH 8 0
BBX 8 10 0 0
BITMAP
09
77
24
18
64
5A
E6
AE
7A
7C
ENDCHAR
STARTCHAR OE
ENCODING 338
SWIDTH 1317 0
DWIDTH 12 0
BBX 12 8 0 0
BITMAP
1800
65F0
7D00
A500
C3C0
A500
7DF0
3FF0
ENDCHAR
STARTCHAR oe
ENCODING 339
SWIDTH 1174 0
DWIDTH 11 0
BBX 10 7 0 0
BITMAP
1800
67C0
5A00
E7C0
ABC0
7BC0
7BC0
ENDCHAR
STARTCHAR Racute
ENCODING 340
SWIDTH 843 0
DWIDTH 8 0
BBX 7 11 0 0
BITMAP
08
38
20
00
FE
DE
A6
BA
B4
AC
AE
ENDCHAR
STARTCHAR Rcommaaccent
ENCODING 342
SWIDTH 843 0
DWIDTH 8 0
BBX 7 10 0 -3
BITMAP
FE
DE
A6
BA
B4
AC
AE
00
10
10
ENDCHAR
STARTCHAR rcommaaccent
ENCODING 343
SWIDTH 831 0
DWIDTH 7 0
BBX 7 9 0 -3
BITMAP
FE
C6
BA
A6
BC
AE
00
10
10
ENDCHAR
STARTCHAR Rcaron
ENCODING 344
SWIDTH 843 0
DWIDTH 8 0
BBX 7 10 0 0
BITMAP
50
20
00
FE
DE
A6
BA
B4
AC
AE
ENDCHAR
STARTCHAR rcaron
ENCODING 345
SWIDTH 831 0
DWIDTH 7 0
BBX 7 9 0 0
BITMAP
38
18
00
FE
C6
BA
A6
BC
AE
ENDCHAR
STARTCHAR Sacute
ENCODING 346
SWIDTH 682 0
DWIDTH 6 0
BBX 6 11 0 0
BITMAP
04
3C
10
30
CC
B0
B8
EC
1C
6C
F8
ENDCHAR
STARTCHAR sacute
ENCODING 347
SWIDTH 683 0
DWIDTH 6 0
BBX 6 10 0 0
BITMAP
04
3C
10
00
FC
C0
F8
34
4C
F8
ENDCHAR
STARTCHAR Scircumflex
ENCODING 348
SWIDTH 682 0
DWIDTH 6 0
BBX 6 10 0 0
BITMAP
30
30
30
CC
B0
B8
EC
1C
6C
F8
ENDCHAR
STARTCHAR scircumflex
ENCODING 349
SWIDTH 683 0
DWIDTH 6 0
BBX 6 9 0 0
BITMAP
30
30
00
FC
C0
F8
34
4C
F8
ENDCHAR
STARTCHAR Scedilla
ENCODING 350
SWIDTH 682 0
DWIDTH 6 0
BBX 6 11 0 -3
BITMAP
30
CC
B0
B8
EC
1C
6C
F8
10
30
70
ENDCHAR
STARTCHAR scedilla
ENCODING 351
SWIDTH 683 0
DWIDTH 6 0
BBX 6 9 0 -3
BITMAP
FC
C0
F8
34
4C
F8
10
30
70
ENDCHAR
STARTCHAR Scaron
ENCODING 352
SWIDTH 682 0
DWIDTH 6 0
BBX 6 10 0 0
BITMAP
30
30
30
CC
B0
B8
EC
1C
6C
F8
ENDCHAR
STARTCHAR scaron
ENCODING 353
SWIDTH 683 0
DWIDTH 6 0
BBX 6 9 0 0
BITMAP
30
30
00
FC
C0
F8
34
4C
F8
ENDCHAR
STARTCHAR Tcommaaccent
ENCODING 354
SWIDTH 591 0
DWIDTH 5 0
BBX 5 9 0 -2
BITMAP
F8
50
50
50
50
50
50
60
60
ENDCHAR
STARTCHAR tcommaaccent
ENCODING 355
SWIDTH 588 0
DWIDTH 5 0
BBX 5 8 0 -2
BITMAP
F8
50
50
50
50
50
60
60
ENDCHAR
STARTCHAR Tcaron
ENCODING 356
SWIDTH 591 0
DWIDTH 5 0
BBX 5 10 0 0
BITMAP
70
20
00
F8
50
50
50
50
50
50
ENDCHAR
STARTCHAR tcaron
ENCODING 357
SWIDTH 842 0
DWIDTH 8 0
BBX 7 7 0 0
BITMAP
02
FA
56
50
50
50
50
ENDCHAR
STARTCHAR Tbar
ENCODING 358
SWIDTH 591 0
DWIDTH 5 0
BBX 5 7 0 0
BITMAP
F8
50
50
D8
50
50
50
ENDCHAR
STARTCHAR tbar
ENCODING 359
SWIDTH 588 0
DWIDTH 5 0
BBX 5 6 0 0
BITMAP
F8
50
50
D8
50
50
ENDCHAR
STARTCHAR Utilde
ENCODING 360
SWIDTH 905 0
DWIDTH 8 0
BBX 8 10 0 0
BITMAP
3A
5E
00
A5
A5
A5
A5
A5
7E
7E
ENDCHAR
STARTCHAR utilde
ENCODING 361
SWIDTH 795 0
DWIDTH 7 0
BBX 7 9 0 0
BITMAP
3C
7C
00
A6
A6
A6
AA
7C
7C
ENDCHAR
STARTCHAR Umacron
ENCODING 362
SWIDTH 905 0
DWIDTH 8 0
BBX 8 7 0 0
BITMAP
A5
A5
A5
A5
A5
7E
7E
ENDCHAR
STARTCHAR umacron
ENCODING 363
SWIDTH 795 0
DWIDTH 7 0
BBX 7 6 0 0
BITMAP
A6
A6
A6
AA
7C
7C
ENDCHAR
STARTCHAR Ubreve
ENCODING 364
SWIDTH 905 0
DWIDTH 8 0
BBX 8 9 0 0
BITMAP
18
00
A5
A5
A5
A5
A5
7E
7E
ENDCHAR
STARTCHAR ubreve
ENCODING 365
SWIDTH 795 0
DWIDTH 7 0
BBX 7 8 0 0
BITMAP
38
00
A6
A6
A6
AA
7C
7C
ENDCHAR
STARTCHAR Uring
ENCODING 366
SWIDTH 905 0
DWIDTH 8 0
BBX 8 10 0 0
BITMAP
18
18
00
A5
A5
A5
A5
A5
7E
7E
ENDCHAR
STARTCHAR uring
ENCODING 367
SWIDTH 795 0
DWIDTH 7 0
BBX 7 9 0 0
BITMAP
38
18
00
A6
A6
A6
AA
7C
7C
ENDCHAR
STARTCHAR Uhungarumlaut
ENCODING 368
SWIDTH 905 0
DWIDTH 8 0
BBX 9 11 0 0
BITMAP
0900
3B80
2400
0000
A500
A500
A500
A500
A500
7E00
7E00
ENDCHAR
STARTCHAR uhungarumlaut
ENCODING 369
SWIDTH 795 0
DWIDTH 7 0
BBX 8 10 0 0
BITMAP
09
3F
44
00
A6
A6
A6
AA
7C
7C
ENDCHAR
STARTCHAR Uogonek
ENCODING 370
SWIDTH 905 0
DWIDTH 8 0
BBX 8 10 0 -3
BITMAP
A5
A5
A5
A5
A5
7E
5E
30
10
10
ENDCHAR
STARTCHAR uogonek
ENCODING 371
SWIDTH 794 0
DWIDTH 7 0
BBX 7 9 0 -3
BITMAP
A6
A6
A6
AA
7C
5C
30
30
30
ENDCHAR
STARTCHAR Ycircumflex
ENCODING 374
SWIDTH 789 0
DWIDTH 7 0
BBX 7 10 0 0
BITMAP
10
28
44
AA
6C
54
38
28
28
28
ENDCHAR
STARTCHAR ycircumflex
ENCODING 375
SWIDTH 733 0
DWIDTH 7 0
BBX 6 9 0 0
BITMAP
30
30
08
EC
74
38
28
30
30
ENDCHAR
STARTCHAR Ydieresis
ENCODING 376
SWIDTH 789 0
DWIDTH 7 0
BBX 7 9 0 0
BITMAP
6C
44
AA
6C
54
38
28
28
28
ENDCHAR
STARTCHAR Zacute
ENCODING 377
SWIDTH 854 0
DWIDTH 8 0
BBX 7 11 0 0
BITMAP
04
0E
10
00
FE
EA
1E
74
F8
BE
FE
ENDCHAR
STARTCHAR zacute
ENCODING 378
SWIDTH 714 0
DWIDTH 6 0
BBX 6 10 0 0
BITMAP
04
3C
10
00
FC
18
28
70
BC
FC
ENDCHAR
STARTCHAR Zdotaccent
ENCODING 379
SWIDTH 854 0
DWIDTH 8 0
BBX 7 9 0 0
BITMAP
18
00
FE
EA
1E
74
F8
BE
FE
ENDCHAR
STARTCHAR zdotaccent
ENCODING 380
SWIDTH 714 0
DWIDTH 6 0
BBX 6 8 0 0
BITMAP
30
00
FC
18
28
70
BC
FC
ENDCHAR
STARTCHAR Zcaron
ENCODING 381
SWIDTH 854 0
DWIDTH 8 0
BBX 7 10 0 0
BITMAP
38
18
00
FE
EA
1E
74
F8
BE
FE
ENDCHAR
STARTCHAR zcaron
ENCODING 382
SWIDTH 714 0
DWIDTH 6 0
BBX 6 9 0 0
BITMAP
38
30
00
FC
18
28
70
BC
FC
ENDCHAR
STARTCHAR florin
ENCODING 402
SWIDTH 388 0
DWIDTH 4 0
BBX 3 9 0 -1
BITMAP
20
40
60
E0
A0
60
60
C0
80
ENDCHAR
STARTCHAR uni01C4
ENCODING 452
SWIDTH 1740 0
DWIDTH 16 0
BBX 15 10 0 0
BITMAP
0038
0018
0000
FEFE
DFEA
A51E
A574
A5F8
BABE
FCFE
ENDCHAR
STARTCHAR uni01C5
ENCODING 453
SWIDTH 1601 0
DWIDTH 14 0
BBX 14 9 0 0
BITMAP
0038
0030
FE00
DFFC
A518
A528
A570
BABC
FCFC
ENDCHAR
STARTCHAR Scommaaccent
ENCODING 536
SWIDTH 682 0
DWIDTH 6 0
BBX 6 11 0 -3
BITMAP
30
CC
B0
B8
EC
1C
6C
F8
00
30
30
ENDCHAR
STARTCHAR scommaaccent
ENCODING 537
SWIDTH 683 0
DWIDTH 6 0
BBX 6 9 0 -3
BITMAP
FC
C0
F8
34
4C
F8
00
30
30
ENDCHAR
STARTCHAR uni021A
ENCODING 538
SWIDTH 591 0
DWIDTH 5 0
BBX 5 10 0 -3
BITMAP
F8
50
50
50
50
50
50
00
20
20
ENDCHAR
STARTCHAR uni021B
ENCODING 539
SWIDTH 588 0
DWIDTH 5 0
BBX 5 9 0 -3
BITMAP
F8
50
50
50
50
50
00
20
20
ENDCHAR
STARTCHAR uni0237
ENCODING 567
SWIDTH 393 0
DWIDTH 4 0
BBX 3 7 0 -1
BITMAP
60
60
60
60
60
A0
C0
ENDCHAR
STARTCHAR circumflex
ENCODING 710
SWIDTH 376 0
DWIDTH 3 0
BBX 3 2 0 7
BITMAP
40
E0
ENDCHAR
STARTCHAR caron
ENCODING 711
SWIDTH 362 0
DWIDTH 3 0
BBX 3 2 0 7
BITMAP
A0
40
ENDCHAR
STARTCHAR breve
ENCODING 728
SWIDTH 360 0
DWIDTH 3 0
BBX 3 1 0 7
BITMAP
E0
ENDCHAR
STARTCHAR dotaccent
ENCODING 729
SWIDTH 255 0
DWIDTH 2 0
BBX 2 1 0 6
BITMAP
C0
ENDCHAR
STARTCHAR ring
ENCODING 730
SWIDTH 330 0
DWIDTH 3 0
BBX 3 2 0 7
BITMAP
E0
E0
ENDCHAR
STARTCHAR ogonek
ENCODING 731
SWIDTH 250 0
DWIDTH 2 0
BBX 2 3 0 -3
BITMAP
C0
C0
C0
ENDCHAR
STARTCHAR tilde
ENCODING 732
SWIDTH 665 0
DWIDTH 6 0
BBX 6 2 0 5
BITMAP
74
BC
ENDCHAR
STARTCHAR hungarumlaut
ENCODING 733
SWIDTH 837 0
DWIDTH 8 0
BBX 7 3 0 6
BITMAP
12
EE
48
ENDCHAR
STARTCHAR uni0307
ENCODING 775
SWIDTH 260 0
DWIDTH 2 0
BBX 2 2 0 3
BITMAP
C0
C0
ENDCHAR
STARTCHAR uni030F
ENCODING 783
SWIDTH 554 0
DWIDTH 5 0
BBX 5 3 0 7
BITMAP
B0
50
58
ENDCHAR
STARTCHAR uni0311
ENCODING 785
SWIDTH 375 0
DWIDTH 3 0
BBX 3 1 0 7
BITMAP
E0
ENDCHAR
STARTCHAR uni0326
ENCODING 806
SWIDTH 274 0
DWIDTH 2 0
BBX 2 2 0 -3
BITMAP
C0
C0
ENDCHAR
STARTCHAR Omega
ENCODING 937
SWIDTH 92 0
DWIDTH 1 0
BBX 1 1 0 0
BITMAP
00
ENDCHAR
STARTCHAR uni00B5.dup2
ENCODING 956
SWIDTH 802 0
DWIDTH 7 0
BBX 7 7 0 -1
BITMAP
A6
A6
A6
AE
B6
BC
A0
ENDCHAR
STARTCHAR pi
ENCODING 960
SWIDTH 92 0
DWIDTH 1 0
BBX 1 1 0 0
BITMAP
00
ENDCHAR
STARTCHAR endash
ENCODING 8211
SWIDTH 473 0
DWIDTH 4 0
BBX 4 1 0 3
BITMAP
F0
ENDCHAR
STARTCHAR emdash
ENCODING 8212
SWIDTH 615 0
DWIDTH 6 0
BBX 5 1 0 3
BITMAP
F8
ENDCHAR
STARTCHAR quoteleft
ENCODING 8216
SWIDTH 254 0
DWIDTH 2 0
BBX 2 3 0 4
BITMAP
C0
C0
C0
ENDCHAR
STARTCHAR quoteright
ENCODING 8217
SWIDTH 251 0
DWIDTH 2 0
BBX 2 3 0 4
BITMAP
C0
40
80
ENDCHAR
STARTCHAR quotesinglbase
ENCODING 8218
SWIDTH 252 0
DWIDTH 2 0
BBX 2 3 0 -1
BITMAP
C0
C0
C0
ENDCHAR
STARTCHAR quotedblleft
ENCODING 8220
SWIDTH 535 0
DWIDTH 5 0
BBX 4 3 0 4
BITMAP
D0
D0
D0
ENDCHAR
STARTCHAR quotedblright
ENCODING 8221
SWIDTH 532 0
DWIDTH 5 0
BBX 4 3 0 4
BITMAP
D0
50
90
ENDCHAR
STARTCHAR quotedblbase
ENCODING 8222
SWIDTH 533 0
DWIDTH 5 0
BBX 4 3 0 -1
BITMAP
D0
D0
D0
ENDCHAR
STARTCHAR dagger
ENCODING 8224
SWIDTH 636 0
DWIDTH 6 0
BBX 5 7 0 0
BITMAP
30
E8
E8
30
30
30
30
ENDCHAR
STARTCHAR daggerdbl
ENCODING 8225
SWIDTH 648 0
DWIDTH 6 0
BBX 6 7 0 0
BITMAP
30
FC
EC
30
FC
EC
30
ENDCHAR
STARTCHAR bullet
ENCODING 8226
SWIDTH 501 0
DWIDTH 5 0
BBX 4 4 0 1
BITMAP
70
90
90
60
ENDCHAR
STARTCHAR ellipsis
ENCODING 8230
SWIDTH 676 0
DWIDTH 6 0
BBX 6 2 0 0
BITMAP
FC
FC
ENDCHAR
STARTCHAR perthousand
ENCODING 8240
SWIDTH 447 0
DWIDTH 4 0
BBX 4 8 0 -1
BITMAP
30
20
60
60
60
40
C0
C0
ENDCHAR
STARTCHAR guilsinglleft
ENCODING 8249
SWIDTH 465 0
DWIDTH 4 0
BBX 4 5 0 1
BITMAP
10
70
A0
F0
10
ENDCHAR
STARTCHAR guilsinglright
ENCODING 8250
SWIDTH 465 0
DWIDTH 4 0
BBX 4 5 0 1
BITMAP
80
E0
50
F0
C0
ENDCHAR
STARTCHAR fraction
ENCODING 8260
SWIDTH 447 0
DWIDTH 4 0
BBX 4 8 0 -1
BITMAP
30
20
60
60
60
40
C0
C0
ENDCHAR
STARTCHAR uni2074
ENCODING 8308
SWIDTH 528 0
DWIDTH 5 0
BBX 4 6 0 1
BITMAP
70
60
D0
20
F0
10
ENDCHAR
STARTCHAR Euro
ENCODING 8364
SWIDTH 781 0
DWIDTH 7 0
BBX 7 8 0 0
BITMAP
0C
32
5C
70
E8
70
3E
3E
ENDCHAR
STARTCHAR trademark
ENCODING 8482
SWIDTH 1503 0
DWIDTH 14 0
BBX 13 5 0 2
BITMAP
FF18
2528
23B8
22E8
22E8
ENDCHAR
STARTCHAR partialdiff
ENCODING 8706
SWIDTH 108 0
DWIDTH 1 0
BBX 1 1 0 0
BITMAP
00
ENDCHAR
STARTCHAR uni2206
ENCODING 8710
SWIDTH 108 0
DWIDTH 1 0
BBX 1 1 0 0
BITMAP
00
ENDCHAR
STARTCHAR product
ENCODING 8719
SWIDTH 521 0
DWIDTH 5 0
BBX 4 6 0 0
BITMAP
70
70
D0
70
70
60
ENDCHAR
STARTCHAR summation
ENCODING 8721
SWIDTH 108 0
DWIDTH 1 0
BBX 1 1 0 0
BITMAP
00
ENDCHAR
STARTCHAR minus
ENCODING 8722
SWIDTH 555 0
DWIDTH 5 0
BBX 5 2 0 3
BITMAP
F8
F8
ENDCHAR
STARTCHAR radical
ENCODING 8730
SWIDTH 108 0
DWIDTH 1 0
BBX 1 1 0 0
BITMAP
00
ENDCHAR
STARTCHAR infinity
ENCODING 8734
SWIDTH 108 0
DWIDTH 1 0
BBX 1 1 0 0
BITMAP
00
ENDCHAR
STARTCHAR integral
ENCODING 8747
SWIDTH 362 0
DWIDTH 3 0
BBX 3 9 0 -1
BITMAP
20
60
40
40
40
40
40
C0
80
ENDCHAR
STARTCHAR approxequal
ENCODING 8776
SWIDTH 665 0
DWIDTH 6 0
BBX 6 4 0 3
BITMAP
74
8C
74
BC
ENDCHAR
STARTCHAR notequal
ENCODING 8800
SWIDTH 473 0
DWIDTH 4 0
BBX 4 8 0 -1
BITMAP
30
20
F0
60
F0
F0
C0
C0
ENDCHAR
STARTCHAR lessequal
ENCODING 8804
SWIDTH 108 0
DWIDTH 1 0
BBX 1 1 0 0
BITMAP
00
ENDCHAR
STARTCHAR greaterequal
ENCODING 8805
SWIDTH 108 0
DWIDTH 1 0
BBX 1 1 0 0
BITMAP
00
ENDCHAR
STARTCHAR lozenge
ENCODING 9674
SWIDTH 521 0
DWIDTH 5 0
BBX 4 6 0 0
BITMAP
70
70
D0
70
70
60
ENDCHAR
STARTCHAR uniF8FF
ENCODING 63743
SWIDTH 108 0
DWIDTH 1 0
BBX 1 1 0 0
BITMAP
00
ENDCHAR
STARTCHAR uniFB01
ENCODING 64257
SWIDTH 962 0
DWIDTH 9 0
BBX 8 6 0 0
BITMAP
BB
A3
BB
BB
A3
A3
ENDCHAR
STARTCHAR uniFB02
ENCODING 64258
SWIDTH 1208 0
DWIDTH 11 0
BBX 11 6 0 0
BITMAP
BB00
A300
BB00
BB00
A3E0
A3E0
ENDCHAR
STARTCHAR .notdef
ENCODING -1
SWIDTH 108 0
DWIDTH 1 0
BBX 1 1 0 0
BITMAP
00
ENDCHAR
ENDFONT
